<svg version="1.1" id="avidyne-icons" xmlns="http://www.w3.org/2000/svg" x="0" y="0" viewBox="0 0 100 100" xml:space="preserve"><style>.st0{fill:#01b3c5}</style><path class="st0" d="M26.6 28.8c.3.2.6.4.9.4h44.1c.4 0 .8-.2 1.1-.4.3-.3.5-.7.5-1.1s-.2-.8-.5-1.1c-.3-.3-.7-.5-1.1-.4H27.3c-.7 0-1.3.8-1.3 1.6.1.4.3.7.6 1zm40.9 27.3c-.4 0-.8.2-1 .5l-7.9 8.8-2.9-2.9c-.3-.3-.6-.4-1.1-.4-.4 0-.8.2-1.1.4s-.4.7-.4 1.1c0 .4.1.8.4 1.1l4 4c.3.3.6.4 1.1.4.4 0 .8-.2 1.1-.5l9-10c.4-.4.5-1.1.2-1.7-.2-.5-.8-.8-1.4-.8zm2.1 20.5c-.3.3-.4.7-.4 1.1v12.1l-7.7-5.3c-.5-.3-1.2-.3-1.7 0l-7.6 5.3V77.7c0-.4-.2-.8-.5-1.2-.3-.3-.8-.5-1.2-.4-.8.1-1.3.8-1.3 1.5v15c0 .5.3 1 .8 1.3.5.3 1.1.2 1.5 0l9.1-6.4 9.1 6.4c.2.2.5.2.8.2.2 0 .5-.1.7-.2.5-.3.8-.8.8-1.3v-15c0-.4-.2-.8-.4-1.1-.5-.5-1.4-.5-2 .1z"/><path class="st0" d="M60.6 48.2c-8 0-14.5 6.5-14.5 14.5s6.5 14.5 14.5 14.5 14.5-6.5 14.5-14.5-6.5-14.5-14.5-14.5zm11.5 14.5c0 6.3-5.2 11.5-11.5 11.5S49.1 69 49.1 62.7c0-6.4 5.2-11.5 11.5-11.5s11.5 5.1 11.5 11.5zM27.5 49.2h19.1c.4 0 .8-.2 1-.4.3-.3.5-.7.5-1.1s-.2-.8-.5-1.1c-.3-.3-.7-.4-1.1-.4H27.3c-.7 0-1.3.8-1.3 1.6.1.8.8 1.4 1.5 1.4zm.1-30.1h44c.4 0 .8-.2 1.1-.4.3-.3.5-.7.5-1.1s-.2-.8-.5-1.1c-.3-.3-.7-.4-1.1-.4H27.3c-.7.1-1.3.9-1.3 1.7.1.8.8 1.4 1.5 1.4l.1-.1z"/><path class="st0" d="M81.6 7.1H17.3c-.7.1-1.2.8-1.2 1.5v75c0 .8.7 1.5 1.5 1.5h25.6c.4 0 .8-.2 1-.4.3-.3.5-.7.5-1.1 0-.4-.2-.8-.5-1.1s-.7-.4-1.1-.4h-24v-72h61v72h-1.5c-.3 0-.8.2-1.1.4-.3.3-.5.7-.5 1.1 0 .4.2.8.5 1.1.3.3.7.4 1 .4h3c.8 0 1.5-.7 1.5-1.5v-75c.1-.8-.6-1.5-1.4-1.5z"/><path class="st0" d="M27.5 39.2h43.1c.4 0 .8-.2 1.1-.4.3-.3.5-.7.5-1.1s-.2-.8-.5-1.1c-.3-.3-.7-.4-1.1-.4H27.3c-.7 0-1.3.8-1.3 1.6.1.7.8 1.4 1.5 1.4z"/></svg>