<?xml version="1.0" encoding="utf-8"?>
<!-- Generator: Adobe Illustrator 23.0.0, SVG Export Plug-In . SVG Version: 6.00 Build 0)  -->
<svg version="1.1" id="avidyne-icons" xmlns="http://www.w3.org/2000/svg" xmlns:xlink="http://www.w3.org/1999/xlink" x="0px"
	 y="0px" viewBox="0 0 100 100" style="enable-background:new 0 0 100 100;" xml:space="preserve">
<style type="text/css">
	.st0{fill:#01B3C5;}
	.st1{fill:none;stroke:#01B3C5;stroke-width:0.5;stroke-miterlimit:10;}
	.st2{clip-path:url(#SVGID_2_);fill:#00B3C5;}
	.st3{fill:#53C5D4;}
	.st4{opacity:0.7;clip-path:url(#SVGID_4_);}
	.st5{clip-path:url(#SVGID_6_);fill:#71CCD9;}
	.st6{opacity:0.4;clip-path:url(#SVGID_4_);}
	.st7{clip-path:url(#SVGID_8_);fill:#A2DBE4;}
	.st8{fill:none;stroke:#00B3C5;stroke-width:1.524;stroke-linecap:round;stroke-linejoin:round;}
	.st9{fill:#00B3C5;}
	.st10{opacity:0.6;}
	.st11{fill:none;stroke:#00B3C5;stroke-width:2.158;stroke-linecap:round;stroke-linejoin:round;stroke-dasharray:0,6.353;}
	.st12{fill:none;stroke:#00B3C5;stroke-width:2.158;stroke-linecap:round;stroke-linejoin:round;}
	.st13{fill:none;stroke:#00B3C5;stroke-width:2.158;stroke-linecap:round;stroke-linejoin:round;stroke-dasharray:0,6.811;}
	.st14{fill:#71CCD9;}
	.st15{fill:#00B9CA;}
	.st16{fill:#B9E3EA;}
	.st17{opacity:0.4;}
</style>
<g>
	<path class="st0" d="M26.6,28.8c0.3,0.2,0.6,0.4,0.9,0.4c0,0,0.1,0,0.1,0h44c0.4,0,0.8-0.2,1.1-0.4c0.3-0.3,0.5-0.7,0.5-1.1
		s-0.2-0.8-0.5-1.1c-0.3-0.3-0.7-0.5-1.1-0.4H27.4h-0.1C26.6,26.2,26,27,26,27.8C26.1,28.2,26.3,28.5,26.6,28.8z"/>
	<path class="st0" d="M67.5,56.1c-0.4,0-0.8,0.2-1,0.5l-7.9,8.8l-2.9-2.9c-0.3-0.3-0.6-0.4-1.1-0.4c-0.4,0-0.8,0.2-1.1,0.4
		s-0.4,0.7-0.4,1.1c0,0.4,0.1,0.8,0.4,1.1l4,4c0.3,0.3,0.6,0.4,1.1,0.4c0,0,0,0,0,0c0.4,0,0.8-0.2,1.1-0.5l9-10
		c0.4-0.4,0.5-1.1,0.2-1.7C68.7,56.4,68.1,56.1,67.5,56.1z"/>
	<path class="st0" d="M69.6,76.6c-0.3,0.3-0.4,0.7-0.4,1.1v12.1l-7.7-5.3c-0.5-0.3-1.2-0.3-1.7,0l-7.6,5.3V77.7
		c0-0.4-0.2-0.8-0.5-1.2c-0.3-0.3-0.8-0.5-1.2-0.4c-0.8,0.1-1.3,0.8-1.3,1.5v15c0,0.5,0.3,1,0.8,1.3c0.5,0.3,1.1,0.2,1.5,0l9.1-6.4
		l9.1,6.4c0.2,0.2,0.5,0.2,0.8,0.2c0.2,0,0.5-0.1,0.7-0.2c0.5-0.3,0.8-0.8,0.8-1.3v-15c0-0.4-0.2-0.8-0.4-1.1
		C71.1,76,70.2,76,69.6,76.6z"/>
	<path class="st0" d="M60.6,48.2c-8,0-14.5,6.5-14.5,14.5s6.5,14.5,14.5,14.5s14.5-6.5,14.5-14.5S68.6,48.2,60.6,48.2z M72.1,62.7
		c0,6.3-5.2,11.5-11.5,11.5S49.1,69,49.1,62.7c0-6.4,5.2-11.5,11.5-11.5S72.1,56.3,72.1,62.7z"/>
	<path class="st0" d="M27.5,49.2c0,0,0.1,0,0.1,0h19c0,0,0,0,0,0c0.4,0,0.8-0.2,1-0.4c0.3-0.3,0.5-0.7,0.5-1.1s-0.2-0.8-0.5-1.1
		c-0.3-0.3-0.7-0.4-1.1-0.4H27.4h-0.1C26.6,46.2,26,47,26,47.8C26.1,48.6,26.8,49.2,27.5,49.2z"/>
	<path class="st0" d="M27.6,19.1h44c0.4,0,0.8-0.2,1.1-0.4c0.3-0.3,0.5-0.7,0.5-1.1s-0.2-0.8-0.5-1.1c-0.3-0.3-0.7-0.4-1.1-0.4H27.4
		h-0.1C26.6,16.2,26,17,26,17.8c0.1,0.8,0.8,1.4,1.5,1.4C27.6,19.1,27.6,19.1,27.6,19.1z"/>
	<path class="st0" d="M81.6,7.1H17.4l-0.1,0c-0.7,0.1-1.2,0.8-1.2,1.5v75c0,0.8,0.7,1.5,1.5,1.5h25.6c0,0,0,0,0,0
		c0.4,0,0.8-0.2,1-0.4c0.3-0.3,0.5-0.7,0.5-1.1c0-0.4-0.2-0.8-0.5-1.1s-0.7-0.4-1.1-0.4H19.1v-72h61v72h-1.5c-0.3,0-0.8,0.2-1.1,0.4
		c-0.3,0.3-0.5,0.7-0.5,1.1c0,0.4,0.2,0.8,0.5,1.1c0.3,0.3,0.7,0.4,1,0.4c0,0,0,0,0,0h3c0.8,0,1.5-0.7,1.5-1.5v-75
		C83.1,7.8,82.4,7.1,81.6,7.1z"/>
	<path class="st0" d="M27.5,39.2c0,0,0.1,0,0.1,0h43c0.4,0,0.8-0.2,1.1-0.4c0.3-0.3,0.5-0.7,0.5-1.1s-0.2-0.8-0.5-1.1
		c-0.3-0.3-0.7-0.4-1.1-0.4H27.4h-0.1C26.6,36.2,26,37,26,37.8C26.1,38.5,26.8,39.2,27.5,39.2z"/>
</g>
</svg>
